<?xml version="1.0" encoding="utf-8"?>
<!-- Generator: Adobe Illustrator 16.0.0, SVG Export Plug-In . SVG Version: 6.00 Build 0)  -->
<!DOCTYPE svg PUBLIC "-//W3C//DTD SVG 1.1//EN" "http://www.w3.org/Graphics/SVG/1.1/DTD/svg11.dtd">
<svg version="1.1" xmlns="http://www.w3.org/2000/svg" xmlns:xlink="http://www.w3.org/1999/xlink" x="0px" y="0px" width="64px"
	 height="64px" viewBox="0 0 64 64" enable-background="new 0 0 64 64" xml:space="preserve">
<g id="Layer_2">
</g>
<g id="Layer_1">
	<path fill="none" stroke="#301A1A" stroke-width="4" stroke-linecap="round" stroke-linejoin="round" d="M20.799,51.548
		c0,0-0.532-0.069-1.056-0.751"/>
	<path fill="none" stroke="#301A1A" stroke-width="4" stroke-linecap="round" stroke-linejoin="round" d="M22.953,21.582
		c-0.789-4.463-1.615-8.721-1.615-8.721h12.055h12.055c0,0-0.823,4.258-1.615,8.721"/>
	<path fill="none" stroke="#301A1A" stroke-width="4" stroke-linecap="round" stroke-linejoin="round" d="M47.032,50.797
		c-0.522,0.682-1.054,0.751-1.054,0.751"/>
	<path fill="none" stroke="#301A1A" stroke-width="4" stroke-linecap="round" stroke-linejoin="round" d="M46.963,46.253
		c0.033,2.528-0.466,3.853-0.966,4.544H20.779c-0.499-0.691-0.989-2.016-0.958-4.544c0.059-5.008,3.191-9.471,3.191-9.471
		s1.516-2.479,1.383-5.668c-0.066-1.491-0.742-5.59-1.442-9.532h20.879c-0.701,3.942-1.375,8.041-1.443,9.532
		c-0.141,3.189,1.375,5.668,1.375,5.668S46.896,41.245,46.963,46.253z"/>
	<path fill="#FFFFFF" stroke="#301A1A" stroke-width="4" stroke-linecap="round" stroke-linejoin="round" d="M33.393,60.415
		l10.638-0.03c0,0,4.92-0.088,7.498-4.004c2.581-3.917,5.785-6.694,5.785-6.694H32.561h1.66H9.467c0,0,3.21,2.777,5.791,6.694
		c2.58,3.916,7.498,4.004,7.498,4.004l10.639,0.03H33.393z"/>
	
		<line fill="none" stroke="#301A1A" stroke-width="4" stroke-linecap="round" stroke-linejoin="round" x1="24.056" y1="49.687" x2="45.055" y2="3.585"/>
</g>
</svg>
