<?xml version="1.0" encoding="utf-8"?>
<!-- Generator: Adobe Illustrator 16.0.0, SVG Export Plug-In . SVG Version: 6.00 Build 0)  -->
<!DOCTYPE svg PUBLIC "-//W3C//DTD SVG 1.1//EN" "http://www.w3.org/Graphics/SVG/1.1/DTD/svg11.dtd">
<svg version="1.1" xmlns="http://www.w3.org/2000/svg" xmlns:xlink="http://www.w3.org/1999/xlink" x="0px" y="0px" width="64px"
	 height="64px" viewBox="0 0 64 64" enable-background="new 0 0 64 64" xml:space="preserve">
<g id="Layer_2">
</g>
<g id="Layer_1">
	<g>
		<path fill="#FFFFFF" d="M43.744,23.742v29.463c0,0-0.551,5.631-5.906,6.539H26.711h-0.139H15.449
			c-5.357-0.908-5.906-6.539-5.906-6.539V23.742"/>
		<path fill="#301A1A" d="M38.021,61.922l-22.938-0.031c-5.535-0.939-7.463-5.953-7.707-8.473l-0.012-0.213V23.742h4.355v29.332
			c0.09,0.65,0.695,3.842,3.926,4.492h21.992c3.236-0.654,3.848-3.938,3.928-4.492V23.742h4.355L45.91,53.418
			c-0.246,2.52-2.174,7.533-7.709,8.473L38.021,61.922z"/>
	</g>
	<path fill="#301A1A" d="M39.371,26.025c-3.523,0-7.98-0.035-11.215-0.063c-2.527-0.023-4.307-0.043-4.307-0.043L8.332,25.906
		c-1.902-0.219-5.5-2.018-5.5-7.262c0-3.566,2.004-5.934,4.299-7.215l0.027-0.861l0,0C7.17,9.209,7.449,7.537,8.43,5.994
		c1.273-2.002,3.363-3.252,6.211-3.717c0.799-0.133,1.578-0.199,2.318-0.199c3.602,0,5.975,1.568,7.398,3.283
		c1.416-1.076,3.484-2.1,6.227-2.1c1.318,0,2.688,0.242,4.072,0.721c3.16,1.092,5.029,2.707,5.559,4.795
		c0.033,0.133,0.061,0.268,0.082,0.398C40.531,9.16,40.771,9.15,41.02,9.15c2.432,0,5.85,0.814,8.314,4.689
		c1.455,2.285,1.916,4.496,1.373,6.574c-0.381,1.459-1.475,3.539-4.518,5.172C45.555,25.99,45.504,26.025,39.371,26.025z
		 M30.584,7.615c-3.189-0.113-6.773,2.771-6.84,2.873l0,0l0,0c-0.082-0.287-2.967-4.055-6.785-4.055
		c-0.506,0-1.049,0.047-1.617,0.141c-1.561,0.254-2.646,0.84-3.227,1.738c-1.021,1.582-0.871,6.133-0.865,6.156l0,0l-1.33,0.453
		c-0.885,0.344-2.732,1.348-2.732,3.723c0,2.402,1.234,2.846,1.563,2.92l19.445,0.043c3.223,0.029,7.666,0.063,11.176,0.063
		c3.201,0,4.482-0.027,4.992-0.049c1.191-0.684,1.91-1.461,2.133-2.311c0.223-0.857-0.057-1.91-0.836-3.133
		c-1.143-1.799-2.717-2.211-4.641-2.672c-0.385-0.092-1.414-0.211-3.049,0.119l0,0l0,0C38.045,13.535,36.854,7.947,30.584,7.615"/>
	<g>
		<line fill="#FFFFFF" x1="16.271" y1="23.734" x2="16.271" y2="53.285"/>
		<rect x="14.639" y="23.734" fill="#301A1A" width="3.266" height="29.551"/>
	</g>
	<g>
		<line fill="#FFFFFF" x1="23.277" y1="23.734" x2="23.277" y2="53.205"/>
		<rect x="21.645" y="23.734" fill="#301A1A" width="3.266" height="29.471"/>
	</g>
	<g>
		<line fill="#FFFFFF" x1="30.008" y1="23.734" x2="30.008" y2="53.205"/>
		<rect x="28.375" y="23.734" fill="#301A1A" width="3.266" height="29.471"/>
	</g>
	<g>
		<line fill="#FFFFFF" x1="37.631" y1="23.734" x2="37.631" y2="53.205"/>
		<rect x="35.998" y="23.734" fill="#301A1A" width="3.266" height="29.471"/>
	</g>
	<g>
		<path fill="#FFFFFF" d="M23.965,21.398c0,0-0.609,9.643,4.945,10.777c9.156,1.871,8.24-10.777,8.24-10.777"/>
		<path fill="#301A1A" d="M30.646,34.541c-0.664,0-1.389-0.07-2.172-0.232c-5.85-1.195-6.971-8.432-6.701-12.715l4.283,0.002
			c-0.119,2.014,0.293,7.834,3.289,8.447c2.311,0.471,3.24-0.35,3.547-0.619c2.037-1.789,2.199-6.295,2.092-7.766l4.387,0.012
			c0.057,0.803,0.402,7.508-3.605,11.027C34.738,33.598,33.082,34.541,30.646,34.541z"/>
	</g>
	<g>
		<line fill="#FFFFFF" x1="9.543" y1="53.205" x2="43.744" y2="53.205"/>
		<rect x="9.543" y="51.029" fill="#301A1A" width="34.201" height="4.354"/>
	</g>
	<path fill="#301A1A" d="M54.594,52.836h-10.85V48.48h10.85c1.387,0,2.096-0.326,2.207-0.586l-0.051-0.193l0.063,0.068V32.426
		c0-0.486-0.164-0.643-0.242-0.717c-0.496-0.477-1.75-0.658-2.422-0.631l-10.404,0.004v-4.354h10.254
		c0.586-0.021,3.609-0.039,5.564,1.816c1.049,0.994,1.604,2.336,1.604,3.881v15.287c0.02,0.518-0.047,1.93-1.201,3.199
		C58.803,52.188,56.996,52.836,54.594,52.836z"/>
	<polygon fill="#301A1A" points="53.801,46.375 42.111,46.375 42.111,43.107 50.533,43.107 50.533,36.598 42.111,36.598 
		42.111,33.332 53.801,33.332 	"/>
</g>
</svg>
