<?xml version="1.0" encoding="utf-8"?>
<!-- Generator: Adobe Illustrator 16.0.0, SVG Export Plug-In . SVG Version: 6.00 Build 0)  -->
<!DOCTYPE svg PUBLIC "-//W3C//DTD SVG 1.1//EN" "http://www.w3.org/Graphics/SVG/1.1/DTD/svg11.dtd">
<svg version="1.1" xmlns="http://www.w3.org/2000/svg" xmlns:xlink="http://www.w3.org/1999/xlink" x="0px" y="0px" width="64px"
	 height="64px" viewBox="0 0 64 64" enable-background="new 0 0 64 64" xml:space="preserve">
<g id="Layer_2">
</g>
<g id="Layer_1">
	<path fill="#2F1919" d="M45.645,61.999h-26.99l-5.029-39.09l37.48,0.01L45.645,61.999z M22.183,58.011h19.969l4.346-31.104
		l-28.315-0.008L22.183,58.011z"/>
	<path fill="#2F1919" d="M52.613,26.907H11.389c-1.108,0-2.006-0.893-2.006-1.994v-4.994c0-1.102,0.897-1.996,2.006-1.996h41.224
		c1.105,0,2.004,0.895,2.004,1.996v4.994C54.617,26.015,53.719,26.907,52.613,26.907z M13.395,22.917h37.212v-1.004H13.395V22.917z"
		/>
	<polygon fill="#2F1919" points="17.729,38.3 17.022,34.376 47.611,28.933 48.318,32.858 	"/>
	<polygon fill="#2F1919" points="18.576,44.952 17.843,41.03 47.273,35.589 48.006,39.509 	"/>
	<path fill="#2F1919" d="M34.867,21.913h-4.901c-1.109,0-2.006-0.893-2.006-1.994V8.835c-0.029-0.578-0.049-3.139,1.695-5.006
		c0.779-0.834,2.211-1.828,4.61-1.828h13.375c1.107,0,2.006,0.893,2.006,1.994v4.973c0,1.102-0.898,1.994-2.006,1.994H36.873v8.957
		C36.873,21.021,35.977,21.913,34.867,21.913z M31.971,17.923h0.891V8.968c0-1.102,0.898-1.994,2.006-1.994h10.768V5.989H34.266
		c-1.152,0-1.543,0.418-1.67,0.555c-0.598,0.639-0.648,1.826-0.629,2.086c0.002,0.049,0.004,0.098,0.004,0.146V17.923z"/>
</g>
</svg>
